<?xml version="1.0" encoding="UTF-8" standalone="no"?>
<!-- Generator: Adobe Illustrator 25.2.3, SVG Export Plug-In . SVG Version: 6.00 Build 0)  -->

<svg
   version="1.1"
   id="Layer_2"
   x="0px"
   y="0px"
   viewBox="0 0 128 128"
   style="enable-background:new 0 0 128 128;"
   xml:space="preserve"
   sodipodi:docname="mobility.svg"
   inkscape:version="1.1.2 (0a00cf5339, 2022-02-04)"
   xmlns:inkscape="http://www.inkscape.org/namespaces/inkscape"
   xmlns:sodipodi="http://sodipodi.sourceforge.net/DTD/sodipodi-0.dtd"
   xmlns="http://www.w3.org/2000/svg"
   xmlns:svg="http://www.w3.org/2000/svg"><defs
   id="defs127" /><sodipodi:namedview
   id="namedview125"
   pagecolor="#ffffff"
   bordercolor="#666666"
   borderopacity="1.0"
   inkscape:pageshadow="2"
   inkscape:pageopacity="0.0"
   inkscape:pagecheckerboard="0"
   showgrid="false"
   inkscape:zoom="5.421875"
   inkscape:cx="62.801153"
   inkscape:cy="64"
   inkscape:window-width="1920"
   inkscape:window-height="1144"
   inkscape:window-x="0"
   inkscape:window-y="0"
   inkscape:window-maximized="1"
   inkscape:current-layer="Layer_2" />
<g
   id="g4"
   transform="matrix(0.4781028,0,0,0.58643333,4.2652955,-7.6865237)">
	<polygon
   style="fill:#b9baba"
   points="72.71,91.15 98.95,96.63 98.48,98.57 72.34,92.89 "
   id="polygon2" />
</g>
<g
   id="g8"
   transform="matrix(0.4781028,0,0,0.58643333,4.2652955,-7.6865237)">
	<polygon
   style="fill:#b9baba"
   points="99.9,100.79 100.31,102.75 72,108.31 71.75,106.58 "
   id="polygon6" />
</g>
<path
   style="fill:#858587;stroke-width:0.529505"
   d="m 37.90939,45.743416 c -2.524383,-0.146607 -4.374641,3.031862 -4.164275,5.594575 0.219927,2.662407 1.807228,4.621094 4.250334,4.562451 2.304455,-0.05278 3.896537,-2.011467 3.939566,-4.996412 0.04303,-2.984946 -1.238286,-4.996413 -4.025625,-5.160614 z m 1.195257,7.500483 c -1.109198,0.70372 -2.462229,0.246303 -3.098107,-1.196324 -0.573723,-1.301882 0.08606,-3.278162 1.238287,-3.747309 1.061388,-0.433961 2.1419,0.111423 2.701281,1.196325 0.616752,1.190459 0.353796,2.984945 -0.841461,3.747308 z"
   id="path10" />
<g
   id="g14"
   transform="matrix(0.4781028,0,0,0.58643333,4.2652955,-7.6865237)">
	
		<rect
   x="94.800003"
   y="87.599998"
   transform="matrix(0.2186,-0.9758,0.9758,0.2186,-5.111,169.8255)"
   style="fill:#b9baba"
   width="17.370001"
   height="1"
   id="rect12" />
</g>
<g
   id="g18"
   transform="matrix(0.4781028,0,0,0.58643333,4.2652955,-7.6865237)">
	<polygon
   style="fill:#b9baba"
   points="101.39,98.43 113.14,83.67 113.92,84.29 104.74,95.84 118.51,89.65 118.92,90.56 "
   id="polygon16" />
</g>
<g
   id="g22"
   transform="matrix(0.4781028,0,0,0.58643333,4.2652955,-7.6865237)">
	<polygon
   style="fill:#b9baba"
   points="119.78,106.84 101.58,99.87 120.66,96.77 120.82,97.76 105.4,100.26 120.13,105.91 "
   id="polygon20" />
</g>
<g
   id="g26"
   transform="matrix(0.4781028,0,0,0.58643333,4.2652955,-7.6865237)">
	<polygon
   style="fill:#b9baba"
   points="97.35,79.42 100.39,95.85 99.4,96 96.36,79.57 "
   id="polygon24" />
</g>
<g
   id="g30"
   transform="matrix(0.4781028,0,0,0.58643333,4.2652955,-7.6865237)">
	
		<rect
   x="91.540001"
   y="82.839996"
   transform="matrix(0.7571,-0.6533,0.6533,0.7571,-37.2969,82.3126)"
   style="fill:#b9baba"
   width="1"
   height="16.93"
   id="rect28" />
</g>
<g
   id="g34"
   transform="matrix(0.4781028,0,0,0.58643333,4.2652955,-7.6865237)">
	<path
   style="fill:#b9baba"
   d="m 85.18,113.54 -0.6,-0.8 0.3,0.4 -0.32,-0.38 c 0.39,-0.35 9.5,-9.63 12.98,-13.17 l 0.71,0.7 c -3.84,3.91 -12.81,13.05 -13.07,13.25 z"
   id="path32" />
</g>
<g
   id="g38"
   transform="matrix(0.4781028,0,0,0.58643333,4.2652955,-7.6865237)">
	
		<rect
   x="99.639999"
   y="101.86"
   transform="matrix(0.9908,-0.1355,0.1355,0.9908,-14.1509,14.5993)"
   style="fill:#b9baba"
   width="1"
   height="18.719999"
   id="rect36" />
</g>
<g
   id="g42"
   transform="matrix(0.4781028,0,0,0.58643333,4.2652955,-7.6865237)">
	<polygon
   style="fill:#b9baba"
   points="92.8,119.43 91.93,118.95 101.12,102.11 115.9,113.2 115.3,114 101.44,103.61 "
   id="polygon40" />
</g>
<g
   id="g46"
   transform="matrix(0.4781028,0,0,0.58643333,4.2652955,-7.6865237)">
	
		<rect
   x="105.85"
   y="100.68"
   transform="matrix(0.9319,-0.3628,0.3628,0.9319,-32.5981,46.0692)"
   style="fill:#b9baba"
   width="1"
   height="18.299999"
   id="rect44" />
</g>
<ellipse
   style="fill:#c9c8c8;stroke-width:0.529505"
   cx="52.391125"
   cy="50.651859"
   rx="1.9506595"
   ry="2.3222759"
   id="ellipse48" />
<path
   style="fill:#484d50;stroke-width:0.529505"
   d="m 52.156854,36.354619 c -6.631287,0.08797 -11.479249,6.163415 -11.67049,14.179958 -0.18646,7.682274 4.781028,14.379348 11.412314,14.637373 7.085483,0.275631 12.311147,-6.45663 12.158154,-14.479036 C 63.903839,42.893351 58.945913,36.26079 52.156854,36.354619 Z M 51.91302,63.013881 c -5.684641,-0.222849 -9.944537,-5.958165 -9.781982,-12.549676 0.167336,-6.872998 4.322048,-12.080526 10.006692,-12.156763 5.81851,-0.07624 10.068843,5.606303 10.197932,12.291642 0.129088,6.878864 -4.345955,12.649371 -10.422642,12.414797 z"
   id="path50" />
<path
   style="fill:#c9c9c9;stroke-width:0.529505"
   d="m 52.209444,37.996632 c -5.875883,0.0821 -10.169246,5.459696 -10.341363,12.555538 -0.167336,6.802627 4.23599,12.731469 10.107093,12.960172 6.27749,0.240446 10.905525,-5.717722 10.766875,-12.819428 -0.129088,-6.90232 -4.522853,-12.772517 -10.532605,-12.696282 z m -0.272517,24.454273 c -5.383439,-0.205254 -9.20348,-5.629763 -9.050487,-11.81077 0.157774,-6.450767 3.824821,-11.171555 9.213041,-11.241927 5.512526,-0.07623 9.734172,5.260307 9.662457,11.541008 -0.0765,6.245515 -4.068655,11.734529 -9.825011,11.511689 z"
   id="path52" />
<g
   id="g56"
   transform="matrix(0.4781028,0,0,0.58643333,4.2652955,-7.6865237)">
	
		<rect
   x="16.52"
   y="110.07"
   transform="matrix(0.213,-0.9771,0.9771,0.213,-87.1337,113.0715)"
   style="fill:#b9baba"
   width="20.200001"
   height="1.1"
   id="rect54" />
</g>
<g
   id="g60"
   transform="matrix(0.4781028,0,0,0.58643333,4.2652955,-7.6865237)">
	
		<rect
   x="28.629999"
   y="95.709999"
   transform="matrix(0.9335,-0.3585,0.3585,0.9335,-31.9857,20.017)"
   style="fill:#b9baba"
   width="18.719999"
   height="1.1"
   id="rect58" />
</g>
<g
   id="g64"
   transform="matrix(0.4781028,0,0,0.58643333,4.2652955,-7.6865237)">
	<polygon
   style="fill:#b9baba"
   points="41.2,115.01 28.02,98.58 23.26,79.49 24.33,79.23 29.03,98.08 42.06,114.32 "
   id="polygon62" />
</g>
<g
   id="g68"
   transform="matrix(0.4781028,0,0,0.58643333,4.2652955,-7.6865237)">
	<polygon
   style="fill:#b9baba"
   points="32.3,79.81 33.35,80.14 27.01,98.57 26.06,98.14 "
   id="polygon66" />
</g>
<g
   id="g72"
   transform="matrix(0.4781028,0,0,0.58643333,4.2652955,-7.6865237)">
	
		<rect
   x="25.51"
   y="91.870003"
   transform="matrix(0.7294,-0.6841,0.6841,0.7294,-53.6359,49.2554)"
   style="fill:#b9baba"
   width="19.860001"
   height="1.1"
   id="rect70" />
</g>
<g
   id="g76"
   transform="matrix(0.4781028,0,0,0.58643333,4.2652955,-7.6865237)">
	
		<rect
   x="17.290001"
   y="83.489998"
   transform="matrix(0.4943,-0.8693,0.8693,0.4943,-71.8098,62.5347)"
   style="fill:#b9baba"
   width="1.1"
   height="18.98"
   id="rect74" />
</g>
<g
   id="g80"
   transform="matrix(0.4781028,0,0,0.58643333,4.2652955,-7.6865237)">
	<polygon
   style="fill:#b9baba"
   points="17.04,117.82 16.06,117.34 24.57,100.08 6.55,95.87 6.8,94.8 26.17,99.32 "
   id="polygon78" />
</g>
<g
   id="g84"
   transform="matrix(0.4781028,0,0,0.58643333,4.2652955,-7.6865237)">
	<polygon
   style="fill:#b9baba"
   points="6.83,105.25 6.53,104.19 25.96,98.66 15.8,82.46 16.73,81.87 27.67,99.31 "
   id="polygon82" />
</g>
<g
   id="g88"
   transform="matrix(0.4781028,0,0,0.58643333,4.2652955,-7.6865237)">
	<polygon
   style="fill:#b9baba"
   points="10.78,113.27 10.18,112.34 27.13,101.38 46.53,106.21 46.27,107.27 27.33,102.56 "
   id="polygon86" />
</g>
<g
   id="g92"
   transform="matrix(0.4781028,0,0,0.58643333,4.2652955,-7.6865237)">
	
		<rect
   x="29.549999"
   y="101.01"
   transform="matrix(0.9181,-0.3964,0.3964,0.9181,-41.4191,21.0018)"
   style="fill:#b9baba"
   width="1.1"
   height="19.389999"
   id="rect90" />
</g>
<g
   id="g96"
   transform="matrix(0.4781028,0,0,0.58643333,4.2652955,-7.6865237)">
	
		<rect
   x="38.57"
   y="90.190002"
   transform="matrix(0.1032,-0.9947,0.9947,0.1032,-63.2017,127.5252)"
   style="fill:#b9baba"
   width="1.1"
   height="17.24"
   id="rect94" />
</g>
<path
   style="fill:#484d50;stroke-width:0.529505"
   d="M 17.298379,36.39567 C 10.667092,36.483635 5.8239102,42.559084 5.6278886,50.575627 5.4414285,58.257906 10.408917,64.954972 17.040202,65.213007 24.125686,65.488627 29.351349,58.756377 29.198357,50.733965 29.050145,42.934401 24.087438,36.30184 17.298379,36.39567 Z M 17.054546,63.054928 C 11.369904,62.832088 7.1100073,57.096766 7.2725616,50.505255 7.4398977,43.632257 11.594612,38.424729 17.279254,38.348492 c 5.818512,-0.07623 10.068845,5.606303 10.197933,12.291643 0.133869,6.878863 -4.345954,12.649367 -10.422641,12.414793 z"
   id="path98" />
<path
   style="fill:#c9c9c9;stroke-width:0.529505"
   d="M 17.35097,38.037683 C 11.475086,38.119783 7.1865033,43.497378 7.0143864,50.599084 6.8470504,57.401712 11.250378,63.330549 17.121481,63.559261 23.39897,63.799698 28.027005,57.841538 27.888355,50.739829 27.754486,43.831644 23.365504,37.961446 17.35097,38.037683 Z M 17.083233,62.491951 C 11.699794,62.286698 7.8797522,56.862193 8.0327459,50.681186 8.1905194,44.230418 11.857568,39.509631 17.245787,39.439259 c 5.512526,-0.07623 9.734173,5.260306 9.662458,11.541008 -0.08128,6.245514 -4.073437,11.734534 -9.825012,11.511684 z"
   id="path100" />
<path
   style="fill:#c9c9c9;stroke-width:0.529505"
   d="m 27.262041,23.517594 c 0,0 0.683687,-1.970417 0.712372,-2.451291 0.02869,-0.48674 -0.114745,-1.037988 -0.774526,-1.067309 -0.659782,-0.03519 -2.022375,-0.09383 -2.022375,-0.09383 l -1.338687,-3.28403 -0.917958,-1.782757 c 0,0 -0.683687,-0.293216 -1.133104,0.193523 -0.449417,0.486739 -0.554599,1.032123 -0.239051,1.776893 0.315548,0.74477 1.893287,4.843939 2.261426,4.972955 0.36814,0.129015 1.893288,0.03518 1.99847,0.0997 0.105181,0.0645 -0.473321,1.483676 -0.473321,1.483676 z"
   id="path102" />
<path
   style="fill:#b3b3b3;stroke-width:0.529505"
   d="M 47.366263,24.614224 45.061808,26.350066 43.388447,25.1772 c 0,0 -0.841461,-0.797549 -1.453432,-1.073173 -0.750621,-0.340131 -1.778542,-0.170066 -2.275769,-1.043852 -0.387263,-0.674398 6.860775,-0.932428 6.860775,-0.932428 z"
   id="path104" />
<path
   style="fill:#5e6268;stroke-width:0.529505"
   d="m 40.864065,20.984201 c -1.238286,0.105553 -1.792886,0.158338 -1.921973,0.785821 -0.13865,0.674399 0.9323,1.630286 1.39606,1.905908 0.482884,0.287353 2.820807,-0.574704 3.155477,-0.486739 0.975331,0.258031 2.447888,1.806214 3.208071,1.841401 0.764965,0.03518 3.031172,-2.158075 3.236756,-2.357462 0.36814,-0.357725 0.502008,-1.612692 -0.659782,-1.741707 -1.152228,-0.123151 -7.43928,-0.02932 -8.414609,0.05278 z"
   id="path106" />
<path
   style="fill:#5e6268;stroke-width:0.529505"
   d="m 23.083422,14.263675 c -0.674125,0.04692 -0.545037,1.694792 -0.320328,2.152211 0.315548,0.645076 0.764964,1.161138 1.553833,1.196325 0.78887,0.03518 7.367564,-0.422233 7.869572,-0.516062 0.502008,-0.0997 0.497227,-0.926565 0.310768,-1.776894 -0.119527,-0.533653 -0.521133,-1.471947 -1.01836,-1.518862 -0.707592,-0.0645 -7.625739,0.410505 -8.395485,0.463282 z"
   id="path108" />
<path
   style="fill:#67a6ad;stroke-width:0.529505"
   d="m 52.677985,49.625605 -8.027346,-19.880089 0.525913,-3.454093 -2.232739,-0.258031 c 0,0 -0.401607,2.656544 -0.506789,2.750372 -0.105182,0.0997 -15.782174,-0.328402 -15.782174,-0.328402 l 0.827118,-3.430635 -2.299674,-0.345995 c -0.239052,0.903106 -4.369861,18.431599 -5.369094,20.589674 -0.999236,2.163939 -2.079748,4.151948 -2.079748,4.151948 0,0 -0.425512,-0.26976 -0.913177,-0.05865 -0.3777,0.164201 -1.037482,0.721313 -0.841461,1.88245 0.157775,0.938294 1.004016,1.518863 1.697266,1.231512 1.051825,-0.439826 0.946643,-1.659607 0.946643,-1.659607 0,0 2.490916,-2.914574 3.351501,-4.644552 0.851023,-1.71825 2.725185,-9.998689 2.772996,-9.992824 0.181678,0.02346 12.378081,16.508099 12.779688,16.666435 0.315548,0.129015 14.658631,-1.196324 14.658631,-1.196324 l 0.817556,-0.774092 z M 37.244827,48.300266 c 0,0 -11.737423,-15.153437 -11.656146,-15.452518 0.0096,-0.03518 0.296424,-1.313611 0.329891,-1.372254 0.09562,-0.170066 15.710458,0.433961 15.710458,0.433961 z m 1.855039,1.905908 4.551539,-17.428798 7.133293,16.783722 z"
   id="path110" />
<path
   style="fill:#626168;stroke-width:0.529505"
   d="m 17.183634,49.912958 c -0.124308,0.02346 -0.774527,0.809278 -0.760183,1.131816 0.0096,0.328403 0.70281,0.932429 0.913175,0.950023 0.205585,0.01172 0.774527,-0.879651 0.774527,-1.090767 -0.0047,-0.211116 -0.769745,-1.020394 -0.927519,-0.991072 z"
   id="path112" />
<path
   style="fill:#626168;stroke-width:0.529505"
   d="m 52.132947,49.525911 c -0.133868,0.09383 -0.573723,0.856193 -0.588065,1.084902 -0.01434,0.228709 0.315548,1.084901 0.430292,1.137681 0.114745,0.05278 0.769746,0.07037 0.941862,0.0176 0.172117,-0.05278 0.573724,-0.821007 0.573724,-1.032123 0,-0.211116 -0.243833,-0.856192 -0.344235,-1.014529 -0.100398,-0.158338 -0.913175,-0.263895 -1.013578,-0.193524 z"
   id="path114" />
<path
   style="fill:#c9c9c9;stroke-width:0.529505"
   d="m 42.413117,25.118557 c -0.167335,0.170066 -0.3777,1.688928 0.02391,1.71825 0.401606,0.02932 2.725186,0.09383 2.878178,0 0.152993,-0.09383 0.176898,-1.413305 0.04781,-1.595099 -0.129088,-0.181794 -2.801683,-0.281489 -2.949894,-0.123151 z"
   id="path116" />
<path
   style="fill:#b3b3b3;stroke-width:0.529505"
   d="m 24.971928,22.75523 c -0.277299,0.123151 -0.851022,2.240175 -0.726716,2.486478 0.124307,0.246301 3.652705,0.738906 3.829603,0.70372 0.176898,-0.02932 0.626314,-2.392649 0.502008,-2.580307 -0.124306,-0.187659 -3.351501,-0.727178 -3.604895,-0.609891 z"
   id="path118" />
<path
   style="fill:#b3b3b3;stroke-width:0.529505"
   d="m 32.913216,54.827269 c 0,0 3.241537,-3.893917 3.614457,-4.316149 0.305985,-0.345996 0.611971,-0.832735 1.16179,-0.750635 0.549818,0.0821 0.712372,0.516061 0.712372,0.516061 l -0.602409,1.823808 -3.657487,3.835274 -0.454197,2.334004 -3.275004,-0.926564 c 0,0 -0.0047,-1.348797 0,-1.683063 0.0047,-0.369454 -0.06216,-0.768229 0.631096,-0.768229 0.693249,0 1.869382,-0.0645 1.869382,-0.0645 z"
   id="path120" />
<path
   style="fill:#858587;stroke-width:0.529505"
   d="m 33.601684,55.706918 c -0.0765,0.140746 -0.01912,1.284289 -0.0765,1.489542 -0.05737,0.211116 -0.908396,0.117287 -1.353032,0.140744 -0.540256,0.02932 -1.759418,0 -1.759418,0 0,0 0,0.950024 0.01912,1.161139 0.01912,0.211115 0.152994,0.54538 0.736279,0.54538 0.583285,0 2.495697,-0.09383 2.806463,-0.117288 0.310767,-0.02341 0.640658,-0.345989 0.635877,-0.99693 -0.0047,-0.498472 0.0047,-1.507137 0.0047,-1.507137 0,0 3.227194,-3.805952 3.576209,-4.18127 0.349015,-0.381182 0.568943,-0.592298 0.540256,-1.161138 -0.01912,-0.381182 -0.325109,-0.803414 -0.325109,-0.803414 z"
   id="path122" />
<path
   style="fill:#006ca8;stroke-width:0.44876"
   d="m 84.401622,106.25793 c 0,0 -12.282173,-2.64392 -12.49232,-2.60339 -0.210137,0.0405 -2.669262,2.5178 -2.58431,2.90066 0.08494,0.38736 10.842478,6.1031 10.842478,6.1031 l 3.089547,-3.28351 z"
   id="path2" /><path
   style="fill:#006ca8;stroke-width:0.44876"
   d="m 82.70707,115.00494 c 0,0 5.968947,10.40904 6.223805,10.40904 0.254858,0 3.004594,-2.13495 3.004594,-2.34664 0,-0.2117 -2.539599,-12.62508 -2.539599,-12.62508 l -4.363815,0.51348 z"
   id="path4" /><path
   style="fill:#9a9a9a;stroke-width:0.44876"
   d="m 78.012391,81.480722 c 0,0 -0.858462,0.977397 -1.041771,1.324215 -0.183319,0.346817 -0.214615,0.941362 0.178841,1.153057 0.393456,0.211694 0.871865,0.06757 1.108841,-0.198183 0.236965,-0.265743 1.403931,-1.711569 1.403931,-1.711569 0,0 -1.547008,-0.648594 -1.649842,-0.56752 z"
   id="path6" /><path
   style="fill:#9a9a9a;stroke-width:0.44876"
   d="m 84.280906,85.016462 c 0,0 -0.693025,0.828761 -0.974701,1.207108 -0.272739,0.364834 -0.268271,0.936858 0.111781,1.207107 0.54547,0.387354 1.086481,-0.04504 1.381571,-0.364836 0.27274,-0.297271 1.04177,-1.207106 1.04177,-1.207106 z"
   id="path8" /><path
   style="fill:#9a9a9a;stroke-width:0.44876"
   d="m 90.214089,88.232411 c 0,0 -0.90764,0.914338 -1.175902,1.279171 -0.299567,0.400868 -0.366638,0.986405 0.04468,1.301695 0.451581,0.342313 0.952351,0.184669 1.359221,-0.18467 0.406871,-0.364834 1.314511,-1.369255 1.314511,-1.369255 z"
   id="path10-3" /><path
   style="fill:#9a9a9a;stroke-width:0.44876"
   d="m 105.87644,103.67255 c 0,0 -1.06413,0.74319 -1.32792,1.03147 -0.25933,0.28825 -0.4337,0.86478 -0.0984,1.16655 0.33087,0.30177 0.83164,0.27476 1.12673,0.0766 0.2951,-0.19818 1.77057,-1.3197 1.77057,-1.3197 0,0 -1.35029,-1.00442 -1.471,-0.95488 z"
   id="path12" /><path
   style="fill:#9a9a9a;stroke-width:0.44876"
   d="m 109.46228,109.32974 c 0,0 -0.88082,0.62158 -1.24745,0.91434 -0.35768,0.28376 -0.4963,0.83777 -0.19673,1.19809 0.42477,0.51348 1.06413,0.23873 1.4263,0.005 0.3398,-0.2162 1.31451,-0.90082 1.31451,-0.90082 z"
   id="path14" /><path
   style="fill:#9a9a9a;stroke-width:0.44876"
   d="m 112.74409,115.11305 c 0,0 -1.09543,0.66661 -1.44865,0.95487 -0.38451,0.3198 -0.59019,0.86929 -0.26379,1.27468 0.35768,0.44139 0.88081,0.40535 1.36368,0.15313 0.48289,-0.25223 1.60066,-1.00893 1.60066,-1.00893 z"
   id="path16" /><path
   style="fill:#9a9a9a;stroke-width:0.44876"
   d="m 93.428831,80.557377 c 0,0 -0.156491,-1.049462 0.688546,-2.234048 0.845047,-1.184586 3.648441,-3.950121 4.08214,-3.972641 0.433699,-0.02253 1.471001,0.531487 2.512773,1.562933 0.99259,0.977395 1.45311,2.234048 1.471,2.531319 0.0179,0.297273 -1.94046,2.252065 -2.45018,2.724998 -0.509705,0.472934 -1.88234,2.013345 -1.88234,2.013345 z"
   id="path18" /><path
   style="fill:#c8c8c8;stroke-width:0.44876"
   d="m 94.707567,80.715021 c 0,0 3.433825,-4.229376 4.354879,-3.594294 0.92999,0.639586 -2.785512,4.269913 -2.785512,4.269913 z"
   id="path20" /><path
   style="fill:#848484;stroke-width:0.44876"
   d="m 93.920654,80.444773 c 0,0 1.944932,-1.98632 2.159547,-2.301609 0.214616,-0.315289 0.01787,-0.788223 -0.156491,-1.049462 -0.174373,-0.256735 -0.442634,-0.355827 -0.442634,-0.355827 0,0 -1.372635,1.238636 -1.842108,2.324131 -0.366628,0.842272 -0.304036,1.270164 -0.304036,1.270164 z"
   id="path22" /><path
   style="fill:#848484;stroke-width:0.44876"
   d="m 97.269527,81.46721 c 0,0 0.737734,-0.770205 1.108831,-1.076486 0.335342,-0.274752 0.831633,-0.247727 1.126733,-0.07207 0.380042,0.225207 0.469463,0.612562 0.469463,0.612562 l -1.368167,1.463841 z"
   id="path24" /><path
   style="fill:#9a9a9a;stroke-width:0.44876"
   d="m 113.41028,96.646122 c 0,0 1.12225,-1.315206 1.77505,-1.972808 0.67513,-0.680123 1.77503,-1.60347 1.99858,-1.585454 0.22357,0.02253 1.21168,0.626076 2.14166,1.585454 1.05967,1.089999 1.71692,2.445741 1.73481,2.571857 0.0224,0.121612 -1.95835,2.11694 -2.83917,2.878129 -0.63043,0.54501 -4.5516,2.15749 -4.5516,1.95479 0.009,-0.20718 -0.25933,-5.431968 -0.25933,-5.431968 z"
   id="path26" /><path
   style="fill:#c8c8c8;stroke-width:0.44876"
   d="m 114.0586,99.190954 c 0,0 3.24603,-3.585285 3.98824,-2.91417 0.7422,0.671115 -3.71551,4.706806 -3.71551,4.706806 z"
   id="path28" /><path
   style="fill:#848484;stroke-width:0.44876"
   d="m 113.81716,98.290129 c 0,0 0.92552,-1.026941 1.18485,-1.315205 0.42029,-0.463926 0.39346,-1.085496 0.26827,-1.355743 -0.16097,-0.346819 -0.57678,-0.427893 -0.57678,-0.427893 l -1.54254,1.653016 z"
   id="path30" /><path
   style="fill:#848484;stroke-width:0.44876"
   d="m 114.93941,101.26735 c 0,0 1.85998,-1.689041 2.17743,-1.954784 0.31745,-0.265743 0.83163,-0.454917 1.2385,-0.171157 0.30404,0.211694 0.43819,0.468429 0.43819,0.468429 0,0 -1.43078,1.567442 -2.2937,2.121442 -0.54101,0.34681 -1.81975,0.54499 -1.81975,0.54499 z"
   id="path32-6" /><path
   style="fill:#006ca8;stroke-width:0.44876"
   d="m 73.031557,73.886763 c -0.438167,0.03603 -3.214742,3.342063 -3.313099,3.585286 -0.0984,0.243223 0,0.639586 0.684079,0.981899 0.67961,0.342315 19.88309,10.557676 20.17819,10.8009 0.290622,0.247727 4.095544,4.51764 4.095544,4.51764 0,0 9.407249,-6.530986 9.358059,-6.724663 -0.0492,-0.198181 -0.3398,-4.269913 -0.3398,-4.269913 0,0 -30.028073,-8.940694 -30.662973,-8.891149 z"
   id="path34" /><path
   style="fill:#006ca8;stroke-width:0.44876"
   d="m 100.47532,99.519755 c 0,0 5.74986,5.251805 6.23722,5.891405 0.48736,0.63958 10.43113,18.90382 10.57869,19.19659 0.14753,0.29276 0.77796,0.54049 1.12225,0.19818 0.34426,-0.34231 2.92411,-2.60339 2.97329,-3.14388 0.0492,-0.5405 -9.5548,-31.718071 -9.5548,-31.718071 l -7.40865,2.702477 z"
   id="path36" /><path
   style="fill:#014eac;stroke-width:0.44876"
   d="m 97.69428,89.353938 c 0,0 -4.533721,-4.418549 -4.873521,-4.666276 -0.33981,-0.243224 -21.591067,-9.080323 -21.591067,-9.080323 l -0.871865,0.968389 c 0,0 21.541878,9.1659 21.886157,9.409123 0.344268,0.243223 4.560537,4.594211 4.560537,4.594211 z"
   id="path38" /><path
   style="fill:#014eac;stroke-width:0.44876"
   d="m 104.66477,97.096535 c 0,0 4.99424,6.179655 5.29381,6.580525 0.29955,0.40087 9.05849,20.56135 9.05849,20.56135 l 0.87188,-0.81976 c 0,0 -8.75,-20.57034 -8.90648,-20.8496 -0.15649,-0.27926 -5.97343,-7.521893 -5.97343,-7.521893 z"
   id="path40" /><path
   style="fill:#9a9a9a;stroke-width:0.44876"
   d="m 78.651758,114.1897 c 0,0 -1.868925,2.69347 -1.868925,2.90517 0,0.21619 1.251908,1.59445 1.394984,1.59445 0.143077,0 2.861518,-1.95479 2.861518,-1.95479 l -0.380042,-1.95479 z"
   id="path42" /><path
   style="fill:#c8c8c8;stroke-width:0.44876"
   d="m 78.651758,114.1897 c 0,0 3.702098,-6.27425 7.667978,-11.88188 4.073193,-5.760789 7.377357,-9.080331 12.456556,-14.647433 6.371348,-6.981399 10.614448,-10.936024 14.540098,-13.597963 3.25499,-2.207023 7.90495,-3.702394 9.56374,-2.211527 1.81975,1.639503 -0.18779,6.810242 -2.23108,9.755942 -4.63657,6.684125 -8.61587,9.86404 -13.18089,14.32763 -4.50243,4.400531 -8.307347,8.220041 -13.019919,11.782801 -3.174499,2.4007 -13.413373,9.02628 -13.413373,9.02628 z"
   id="path44" /><path
   style="fill:#3b5361;stroke-width:0.44876"
   d="m 114.28662,74.846142 1.2385,1.315205 c 0,0 2.07461,-2.013344 3.62608,-0.51347 1.59173,1.535907 -0.60359,3.715905 -0.60359,3.715905 l 1.33686,1.504379 c 0,0 3.62608,-4.134789 0.6662,-6.823753 -2.57536,-2.342148 -6.26405,0.801734 -6.26405,0.801734 z"
   id="path46" /><path
   style="fill:#9a9a9a;stroke-width:0.44876"
   d="m 89.212561,103.19963 c -0.576777,0.5585 -7.390771,8.68396 -7.770813,9.1659 -0.487355,0.62157 -0.710916,1.36926 -0.160959,1.82867 0.549937,0.45493 1.144605,0.005 1.685606,-0.36032 0.679611,-0.45492 8.575618,-7.47236 9.098738,-7.9588 0.840569,-0.78372 0.983645,-2.19802 0.0984,-2.99976 -0.97471,-0.8828 -2.074605,-0.52247 -2.950939,0.32431 z"
   id="path48" /><path
   style="fill:#dfdfdf;stroke-width:0.44876"
   d="m 88.966649,101.35744 c -0.388988,-0.33782 -0.871875,-0.11262 -1.381581,0.4414 -0.438167,0.48195 -0.639368,1.22963 -0.201201,1.53141 0.438167,0.30177 1.01942,-0.13964 1.381581,-0.58554 0.36216,-0.44141 0.639367,-1.00441 0.201201,-1.38727 z"
   id="path50-7" /><path
   style="fill:#dfdfdf;stroke-width:0.44876"
   d="m 90.227503,98.736038 c -0.402403,0.463925 -0.988124,1.229626 -0.438167,1.774632 0.541001,0.53598 1.359221,-0.14414 1.716903,-0.54951 0.353224,-0.405371 4.399589,-5.188756 9.519031,-10.341479 4.99871,-5.035614 8.361,-8.220033 8.87965,-8.778545 0.43817,-0.472934 0.39792,-1.225122 0.0134,-1.463841 -0.45606,-0.28376 -0.9613,-0.103598 -1.58726,0.526983 -0.62595,0.630578 -4.87352,4.544666 -8.879652,8.625406 -4.006122,4.08074 -8.723162,9.625321 -9.223931,10.206354 z"
   id="path52-5" /><path
   style="fill:#3b5361;stroke-width:0.44876"
   d="m 114.97964,88.610758 c 0,0 -0.24591,-1.675536 -1.27873,-1.017934 -1.10885,0.707149 -0.28169,2.625907 -0.28169,2.625907 0,0 0.41582,-0.391859 0.85846,-0.860288 0.36663,-0.382851 0.58125,-0.608058 0.70196,-0.747685 z"
   id="path54" /><path
   style="fill:#3b5361;stroke-width:0.44876"
   d="m 111.01376,92.551869 c 0,0 -0.17437,-2.148468 -1.34582,-1.26566 -0.93445,0.707149 -0.29955,2.819585 -0.29955,2.819585 0,0 0.53653,-0.490951 0.88528,-0.824255 0.35322,-0.33781 0.76009,-0.72967 0.76009,-0.72967 z"
   id="path56" /><path
   style="fill:#3b5361;stroke-width:0.44876"
   d="m 107.23119,96.16418 c 0,0 -0.13414,-1.783634 -1.18485,-1.193593 -1.05071,0.59004 -0.34876,2.697972 -0.34876,2.697972 0,0 0.46501,-0.423388 0.77798,-0.738677 0.31299,-0.31529 0.75563,-0.765702 0.75563,-0.765702 z"
   id="path58" /><path
   style="fill:#3b5361;stroke-width:0.44876"
   d="m 102.94785,100.335 c 0,0 -0.0806,-1.774624 -1.11331,-1.30169 -1.07306,0.490951 -0.42923,2.76553 -0.42923,2.76553 0,0 0.52312,-0.49094 0.81375,-0.7657 0.29509,-0.27025 0.72879,-0.69814 0.72879,-0.69814 z"
   id="path60" /><path
   style="fill:#3e717a;stroke-width:0.551553"
   d="m 25.635088,80.441886 c 0,0 0.141743,-1.129743 0.227804,-1.892921 0.08607,-0.757169 0.258186,-3.281065 1.366836,-3.431297 1.10866,-0.150231 14.083487,0 15.111148,0 1.022598,0 1.280774,1.316031 1.366836,2.025126 0.08607,0.709094 0.31893,3.455333 0.227805,3.455333 -0.349302,0.006 -18.300429,-0.156241 -18.300429,-0.156241 z"
   id="path2-9" /><path
   style="fill:#6ba4ab;stroke-width:0.551553"
   d="m 22.273683,79.678708 c 0,0 -0.59736,-1.370114 -1.022597,-1.670579 C 20.825849,77.701657 10.625192,76.818294 7.8155857,81.944204 5.0059699,87.070116 4.3681189,96.408527 4.10487,100.52488 c -0.2632403,4.11636 -0.2632403,6.83255 -0.2632403,6.83255 l 34.6113523,1.78476 26.633069,-1.62851 c 0,0 -0.248049,-12.703623 -0.313866,-16.044774 -0.06583,-3.341161 -0.146806,-8.887718 -1.65033,-10.28187 -1.503515,-1.394152 -2.419806,-1.087679 -5.037044,-1.1658 -2.617237,-0.07812 -35.811128,-0.342528 -35.811128,-0.342528 z"
   id="path4-2" /><path
   style="fill:#e0e0e0;stroke-width:0.551553"
   d="m 3.8517567,106.73246 61.2950473,0.27042 c 0,0 0.227805,9.41654 0.227805,10.28788 0,0.87135 -0.227805,1.88091 -1.361772,1.95302 -1.133968,0.0661 -49.626312,0.46872 -49.626312,0.46872 L 4.0744978,119.10557 c 0,0 -1.1896489,-0.54084 -1.4731431,-1.74871 -0.2834941,-1.20786 0.3391751,-7.52961 0.3391751,-7.52961 z"
   id="path6-0" /><path
   style="fill:#ff8d02;stroke-width:0.551553"
   d="m 2.5811008,114.18998 c 0,0 1.5743953,0.16225 1.8477625,-0.36657 0.5214257,-1.00355 0.7542937,-5.64271 0.3442386,-6.17152 -0.2632403,-0.34253 -1.1744672,-0.1923 -1.1744672,-0.1923 0,0 -0.5517978,1.4242 -0.8099746,3.28107 -0.2733672,1.98906 -0.2075593,3.44932 -0.2075593,3.44932 z"
   id="path8-2" /><path
   style="fill:#868486;stroke-width:0.551553"
   d="m 17.874491,119.71851 c 0,0 0.197432,-2.18137 -0.141743,-4.12837 -0.344239,-1.94701 -1.594649,-6.26767 -6.727881,-6.3458 -4.7231773,-0.0721 -6.5355045,4.42884 -6.8746796,6.65828 -0.2936211,1.92898 -0.045597,3.20295 -0.045597,3.20295 0,0 2.3691873,0.45069 6.8189976,0.65501 4.44981,0.20431 6.970868,-0.0421 6.970868,-0.0421 z"
   id="path10-37" /><path
   style="fill:#868486;stroke-width:0.551553"
   d="m 45.120111,119.47213 c 0,0 0.06583,-3.75579 0.875791,-5.67275 1.118777,-2.6501 2.850106,-4.23654 6.135576,-4.23654 3.285469,0 5.31041,2.28953 6.074831,3.88199 1.31621,2.74023 0.890973,5.829 0.890973,5.829 z"
   id="path12-5" /><path
   style="fill:#4e433d;stroke-width:0.551553"
   d="m 4.9654794,118.45055 c 0.035436,2.74024 1.8781343,6.69434 5.8925806,6.72439 4.014455,0.03 6.095086,-3.61759 5.968525,-7.35536 -0.126561,-3.79787 -2.617238,-6.484 -6.196329,-6.35781 -3.3563413,0.10817 -5.7154027,3.18491 -5.6647766,6.98878 z"
   id="path14-9" /><path
   style="fill:#b2b1b2;stroke-width:0.551553"
   d="m 7.7548327,118.21619 c 0.02024,1.44824 1.007415,3.52744 3.1639803,3.54547 2.156566,0.0181 3.199408,-1.79677 3.133601,-3.76781 -0.07087,-2.00109 -1.447835,-3.4974 -3.255098,-3.46736 -1.7971363,0.0361 -3.0677923,1.68862 -3.0424833,3.6897 z"
   id="path16-2" /><path
   style="fill:#4e433d;stroke-width:0.551553"
   d="m 46.34014,118.49863 c 0.03544,2.7222 1.837636,6.64025 5.766029,6.67029 3.928384,0.03 5.963452,-3.58754 5.841963,-7.30126 -0.126561,-3.76782 -2.561557,-6.42993 -6.064713,-6.30975 -3.280406,0.10817 -5.588841,3.1669 -5.543279,6.94072 z"
   id="path18-2" /><path
   style="fill:#b2b1b2;stroke-width:0.551553"
   d="m 48.962442,118.2823 c 0.02024,1.44823 1.007407,3.52744 3.163972,3.54547 2.156565,0.0181 3.199408,-1.79678 3.1336,-3.76782 -0.07087,-2.00109 -1.447834,-3.4974 -3.255097,-3.46735 -1.8022,0.03 -3.067793,1.6826 -3.042475,3.6897 z"
   id="path20-8" /><path
   style="fill:#454c52;stroke-width:0.551553"
   d="m 28.530756,103.82998 c 0,0 30.986699,0.0721 31.953616,0 0.966908,-0.0721 2.237563,-1.72466 2.298308,-4.092318 0.0608,-2.367649 -0.242995,-12.355062 -0.364493,-13.502831 -0.121488,-1.147779 -0.718849,-3.449328 -3.690452,-3.449328 -2.359062,0 -45.632111,-0.288445 -46.720516,-0.288445 -1.088406,0 -2.7134273,0.763177 -3.4373403,2.842385 -0.723921,2.079208 -2.055321,5.907119 -2.374251,10.221782 -0.3239936,4.43484 -0.2986762,6.832535 -0.05567,7.980315 0.242987,1.14778 0.485982,2.43977 2.723545,2.43977 1.8173913,0 10.4689613,0 10.4689613,0 l 0.126561,13.66509 9.06668,-0.0481 z"
   id="path22-9" /><path
   style="fill:#ff2a23;stroke-width:0.551553"
   d="m 65.080988,106.38393 c 0,0 -1.270647,-0.24638 -1.589577,0.57689 -0.31893,0.82327 -0.384738,6.32777 0.09113,6.56814 0.475863,0.24037 1.711075,0.0541 1.711075,0.0541 0,0 0.04047,-2.17535 -0.05567,-3.75579 -0.126552,-2.09724 -0.156933,-3.44332 -0.156933,-3.44332 z"
   id="path24-7" /><g
   id="g28"
   transform="matrix(0.50623592,0,0,0.60092747,1.7053183,50.653911)"><path
     style="fill:#454c52"
     d="m 118.87,93.74 c 0,0 -0.01,0 0,0 l -6.85,-0.04 c -0.69,0 -1.25,-0.57 -1.24,-1.26 0,-0.69 0.56,-1.24 1.25,-1.24 0,0 0,0 0.01,0 l 6.84,0.04 c 0.69,0 1.25,0.57 1.24,1.26 -0.01,0.68 -0.56,1.24 -1.25,1.24 z"
     id="path26-3" /></g><g
   id="g32"
   transform="matrix(0.50623592,0,0,0.60092747,1.7053183,50.653911)"><path
     style="fill:#454c52"
     d="m 118.78,98.25 c 0,0 0,0 0,0 l -6.85,-0.04 c -0.69,0 -1.25,-0.57 -1.24,-1.26 0,-0.69 0.56,-1.24 1.25,-1.24 0,0 0,0 0.01,0 l 6.84,0.04 c 0.69,0 1.25,0.57 1.24,1.26 0,0.68 -0.56,1.24 -1.25,1.24 z"
     id="path30-6" /></g><g
   id="g36"
   transform="matrix(0.50623592,0,0,0.60092747,1.7053183,50.653911)"><path
     style="fill:#454c52"
     d="m 118.74,102.78 c -0.01,0 -0.01,0 0,0 l -6.85,-0.04 c -0.69,0 -1.25,-0.57 -1.24,-1.26 0,-0.69 0.56,-1.24 1.25,-1.24 0,0 0,0 0.01,0 l 6.84,0.04 c 0.69,0 1.25,0.57 1.24,1.26 -0.01,0.69 -0.57,1.24 -1.25,1.24 z"
     id="path34-1" /></g><path
   style="fill:#afe3fb;stroke-width:0.551553"
   d="m 19.190709,86.096614 c 0,0 -7.603664,0 -8.216215,0.05411 -0.612542,0.05411 -1.2099023,0.943456 -1.7363833,3.118817 -0.556861,2.289535 -1.549086,6.634235 -1.316218,12.036569 0.0456,1.00355 0.845419,1.27998 1.503524,1.27998 0.6581043,0 9.8108463,0 9.8108463,0 z"
   id="path38-2" /><path
   style="fill:#868486;stroke-width:0.551553"
   d="m 10.928932,97.412076 -0.141743,7.018834 c 0,0 2.485622,0.55887 2.910859,-0.22234 0.420173,-0.78121 0.425237,-5.678771 0.09618,-6.297726 -0.658105,-1.225893 -2.865296,-0.498768 -2.865296,-0.498768 z"
   id="path40-9" /><path
   style="fill:#afe3fb;stroke-width:0.551553"
   d="m 20.972655,87.827288 h 6.009024 v 29.866102 h -5.958398 c 0,0 -0.05063,-30.088446 -0.05063,-29.866102 z"
   id="path42-3" /><polygon
   style="fill:#afe3fb"
   points="84.24,59.17 84.24,82.35 53.64,82.44 53.64,59.17 "
   id="polygon44"
   transform="matrix(0.50623592,0,0,0.60092747,1.7053183,50.653911)" /><path
   style="fill:#afe3fb;stroke-width:0.551553"
   d="m 46.22877,86.264878 v 13.821332 c 0,0 11.643419,0 12.954574,0 1.311155,0 1.792073,-0.931443 1.933824,-2.602024 0.141743,-1.67058 -0.02024,-7.992331 -0.146815,-9.152127 -0.141743,-1.279973 -0.840347,-1.922961 -2.075567,-1.989068 -1.295965,-0.07208 -12.615399,-0.132203 -12.666016,-0.0781 z"
   id="path46-1" /><path
   style="fill:#f92612;stroke-width:0.523112"
   d="m 77.280028,44.176183 c -0.17972,0.0874 -7.67068,3.35249 -7.67068,3.35249 0,0 -0.50407,-3.31503 -0.0438,-6.68625 0.48654,-3.57099 1.12211,-5.693614 1.12211,-5.693614 0,0 0.69255,-2.403554 2.83596,-4.376342 1.80151,-1.660637 5.93052,-3.421162 6.88169,-4.282696 0.63119,-0.568113 1.69631,-1.591965 3.31373,-4.126622 1.61742,-2.534657 2.89732,-5.187931 5.7552,-7.073317 2.85787,-1.885385 4.34817,-1.591964 7.45151,-1.885385 3.103332,-0.293421 6.456522,-0.174804 8.985652,0 2.52913,0.174804 4.51035,1.829198 5.17661,2.41604 0.66186,0.586842 2.31873,2.597087 3.18661,3.889388 0.86788,1.298544 1.90233,3.240116 2.69131,4.189052 0.7846,0.942692 2.02944,2.066432 3.10334,2.946695 1.07828,0.886505 1.74015,1.648151 1.94616,2.41604 0.20601,0.767889 0.20163,0.805347 0.20163,0.805347 l -0.74077,10.925244 z"
   id="path2-94" /><path
   style="fill:#d70617;stroke-width:0.523112"
   d="m 69.609348,47.528673 c 0,0 1.13526,-2.92172 3.82219,-5.98079 2.28805,-2.60333 4.34818,-4.05171 7.54794,-4.71971 2.81843,-0.58684 8.46843,-0.39955 17.88802,-0.33712 9.419582,0.0562 16.121562,0.0749 16.980682,0.0187 0.85911,-0.0562 1.99875,-1.105011 3.35318,-2.328639 1.35004,-1.223627 1.88917,0.574356 1.88917,0.574356 l 1.51661,6.355373 c 0,0 0.057,7.32928 -0.0394,9.10229 -0.0658,1.17368 -1.18786,3.2089 -1.76207,3.55851 -0.5742,0.3496 -10.93619,0.5806 -14.00446,0.5806 -3.07265,0 -29.262522,-0.11238 -31.901232,-0.4058 -1.22731,-0.13735 -2.86665,-1.04882 -3.64686,-2.16008 -1.43771,-2.04146 -1.64372,-4.25772 -1.64372,-4.25772 z"
   id="path4-7" /><path
   style="fill:#fffeff;stroke-width:0.523112"
   d="m 71.349498,35.136323 c 0,0 3.50221,-0.6243 3.75206,-0.37458 0.31121,0.31215 -1.06513,3.68961 -1.42894,4.3701 -0.17972,0.33712 -3.26552,2.45974 -3.26552,2.45974 l 0.009,-3.05283 z"
   id="path6-8" /><path
   style="fill:#d5ccc2;stroke-width:0.523112"
   d="m 69.416488,42.340743 1.3588,-1.01137 c 0,0 0.24108,-1.92908 0.39011,-2.8468 0.24108,-1.51705 0.83282,-3.47111 0.83282,-3.47111 l -1.32812,0.174804 c 0,0 -0.43395,1.055066 -0.83282,3.421166 -0.42517,2.55338 -0.42079,3.73331 -0.42079,3.73331 z"
   id="path8-4" /><path
   style="fill:#546d81;stroke-width:0.523112"
   d="m 82.167338,31.434225 c 0.0964,1.348488 1.14403,1.317273 4.13778,1.317273 2.38887,0 26.474792,0.318393 27.048992,-0.0437 0.28053,-0.174804 0.66625,-0.917721 1.14403,-1.904115 0.71885,-1.473347 1.05198,-2.172563 0.98623,-2.721947 -0.12712,-1.073796 -4.04135,-8.109655 -6.49158,-10.194815 -1.69632,-1.442134 -5.34756,-1.448376 -8.36761,-1.49832 -2.735152,-0.0437 -7.924912,-0.137346 -10.405822,2.128862 -3.69508,3.377462 -8.17913,11.149994 -8.05202,12.916762 z"
   id="path10-5" /><path
   style="fill:#afe3fb;stroke-width:0.523112"
   d="m 85.415318,30.079495 c 0.19287,0.343365 4.0019,0.243477 7.54356,0.224748 3.62495,-0.01873 7.03511,0.230991 7.149072,0 0.0526,-0.106131 0.23231,-11.043863 0.0833,-11.237396 -0.10958,-0.143589 -1.047592,-0.0437 -2.239832,-0.02497 -1.98999,0.03121 -4.88732,0.474468 -6.71075,1.929086 -3.13401,2.490956 -6.20667,8.428047 -5.82533,9.108534 z"
   id="path12-0" /><path
   style="fill:#afe3fb;stroke-width:0.523112"
   d="m 102.37409,19.266623 c -0.0307,0.08116 -0.0877,11.125022 -0.0394,11.168723 0.25423,0.224748 9.96311,0.04994 10.05954,-0.131103 0.0964,-0.181047 1.14403,-1.629422 1.11335,-1.991516 -0.0307,-0.362095 -3.30497,-6.124381 -5.55357,-8.07844 -0.98623,-0.867777 -5.52727,-1.092525 -5.57987,-0.967664 z"
   id="path14-3" /><path
   style="fill:#af0f21;stroke-width:0.523112"
   d="m 84.468538,34.19363 c 0.28491,1.073796 1.79713,1.542023 2.77021,1.417161 1.43771,-0.18729 2.30121,-1.379702 2.45462,-3.833201 0.17971,-2.815592 -0.72324,-4.107893 -1.35004,-4.276453 -0.66625,-0.181047 -3.90109,4.719707 -3.90109,4.719707 0,0 -0.21039,1.080038 0.0263,1.972786 z"
   id="path16-6" /><path
   style="fill:#f92612;stroke-width:0.523112"
   d="m 86.533048,33.594303 c 1.06513,-0.162318 1.82781,-1.56075 2.19601,-2.678247 0.3638,-1.117496 0.63557,-2.803106 -0.1841,-3.315032 -1.01691,-0.630542 -1.93301,0.112374 -2.55981,1.117497 -0.55229,0.886506 -1.6218,2.902994 -1.54291,3.496079 0.0789,0.599328 0.62681,1.604451 2.09081,1.379703 z"
   id="path18-1" /><path
   style="fill:#4e433d;stroke-width:0.523112"
   d="m 75.947518,52.523073 c 0.0394,3.44613 1.96808,8.40307 6.16722,8.44053 4.19915,0.0375 6.37762,-4.5449 6.24612,-9.23964 -0.13588,-4.76965 -2.73952,-8.14086 -6.4872,-7.99103 -3.50659,0.14983 -5.97874,4.02049 -5.92614,8.79014 z"
   id="path20-0" /><path
   style="fill:#c8c8c8;stroke-width:0.523112"
   d="m 78.871138,52.235893 c 0.0219,1.81671 1.05637,4.43253 3.31373,4.45126 2.25737,0.0187 3.3488,-2.25997 3.27867,-4.7322 -0.0745,-2.51592 -1.5166,-4.38882 -3.41016,-4.35137 -1.8848,0.0437 -3.21292,2.11638 -3.18224,4.63231 z"
   id="path22-6" /><path
   style="fill:#4e433d;stroke-width:0.523112"
   d="m 106.94581,52.810253 c 0.0394,3.42116 1.92424,8.34064 6.03573,8.3781 4.11148,0.0375 6.24173,-4.50745 6.11462,-9.16472 -0.1315,-4.73844 -2.67816,-8.07844 -6.34694,-7.92861 -3.43207,0.14359 -5.85601,3.98303 -5.80341,8.71523 z"
   id="path24-3" /><path
   style="fill:#c8c8c8;stroke-width:0.523112"
   d="m 109.68972,52.541803 c 0.0219,1.81671 1.05636,4.43252 3.31373,4.45125 2.25737,0.0187 3.3488,-2.25996 3.27867,-4.73219 -0.0745,-2.51593 -1.5166,-4.38883 -3.41017,-4.35137 -1.88041,0.0437 -3.20853,2.11638 -3.18223,4.63231 z"
   id="path26-2" /><path
   style="fill:#fffeff;stroke-width:0.523112"
   d="m 121.29216,31.172019 c -0.12711,0.255963 -2.3275,2.840564 -2.3275,3.240116 0,0.399552 2.50722,5.562508 2.50722,5.562508 l 0.58735,0.50569 c 0,0 0.28053,-6.542666 0.28053,-6.686254 0,-0.131103 -1.0476,-2.62206 -1.0476,-2.62206 z"
   id="path28-0" /><path
   style="fill:#d5ccc2;stroke-width:0.523112"
   d="m 122.61152,42.072293 c 0,0 0.20601,-4.70098 0.17971,-7.241877 -0.0263,-2.765648 -0.57859,-4.794622 -0.57859,-4.794622 l -0.92924,1.154954 c 0,0 0.31559,2.447256 0.31559,4.051706 0,1.604449 -0.12711,4.732189 -0.12711,4.732189 z"
   id="path30-61" /></svg>
